<svg width="13" height="17" viewBox="0 0 13 17" fill="none" xmlns="http://www.w3.org/2000/svg">
<path d="M12.2135 15.521C12.2135 12.8195 9.2015 10.6235 6.5 10.6235C3.7985 10.6235 0.786499 12.8195 0.786499 15.521M6.5 8.1755C7.36586 8.1755 8.19627 7.83153 8.80853 7.21927C9.42078 6.60701 9.76475 5.77661 9.76475 4.91075C9.76475 4.04488 9.42078 3.21448 8.80853 2.60222C8.19627 1.98996 7.36586 1.646 6.5 1.646C5.63413 1.646 4.80373 1.98996 4.19147 2.60222C3.57921 3.21448 3.23525 4.04488 3.23525 4.91075C3.23525 5.77661 3.57921 6.60701 4.19147 7.21927C4.80373 7.83153 5.63413 8.1755 6.5 8.1755Z" stroke="#E1841A" stroke-width="1.5" stroke-linecap="round" stroke-linejoin="round"/>
</svg>
