<svg width="19" height="19" viewBox="0 0 19 19" fill="none" xmlns="http://www.w3.org/2000/svg">
<path fill-rule="evenodd" clip-rule="evenodd" d="M11.75 2.75098C11.8485 2.75098 11.946 2.77038 12.037 2.80807C12.128 2.84576 12.2107 2.901 12.2803 2.97065C12.35 3.04029 12.4052 3.12297 12.4429 3.21396C12.4806 3.30496 12.5 3.40249 12.5 3.50098C12.5 3.59947 12.4806 3.69699 12.4429 3.78799C12.4052 3.87898 12.35 3.96166 12.2803 4.03131C12.2107 4.10095 12.128 4.1562 12.037 4.19389C11.946 4.23158 11.8485 4.25098 11.75 4.25098H5V14.001C5 14.1999 5.07902 14.3907 5.21967 14.5313C5.36032 14.672 5.55109 14.751 5.75 14.751H11.75C11.9489 14.751 12.1397 14.83 12.2803 14.9706C12.421 15.1113 12.5 15.3021 12.5 15.501C12.5 15.6999 12.421 15.8907 12.2803 16.0313C12.1397 16.172 11.9489 16.251 11.75 16.251H5.75C5.15326 16.251 4.58097 16.0139 4.15901 15.592C3.73705 15.17 3.5 14.5977 3.5 14.001V3.50098C3.5 3.30206 3.57902 3.1113 3.71967 2.97065C3.86032 2.82999 4.05109 2.75098 4.25 2.75098H11.75ZM13.0303 6.72073C12.9254 6.61591 12.7919 6.54452 12.6465 6.51558C12.5011 6.48663 12.3503 6.50141 12.2134 6.55807C12.0764 6.61473 11.9592 6.71072 11.8768 6.83391C11.7943 6.95711 11.7502 7.10198 11.75 7.25023V8.75023H7.25C7.05109 8.75023 6.86032 8.82924 6.71967 8.9699C6.57902 9.11055 6.5 9.30131 6.5 9.50023C6.5 9.69914 6.57902 9.8899 6.71967 10.0306C6.86032 10.1712 7.05109 10.2502 7.25 10.2502H11.75V11.7502C11.75 11.8985 11.794 12.0435 11.8764 12.1668C11.9589 12.2901 12.076 12.3862 12.213 12.443C12.35 12.4997 12.5008 12.5146 12.6463 12.4857C12.7917 12.4567 12.9254 12.3853 13.0303 12.2805L15.2803 10.0305C15.4209 9.88983 15.4998 9.6991 15.4998 9.50023C15.4998 9.30135 15.4209 9.11062 15.2803 8.96998L13.0303 6.72073Z" fill="#E1841A"/>
</svg>
