<svg width="18" height="18" viewBox="0 0 18 18" fill="none" xmlns="http://www.w3.org/2000/svg">
<path d="M7.7046 1.27079C7.91557 1.05989 8.20167 0.941406 8.49998 0.941406C8.79829 0.941406 9.08438 1.05989 9.29535 1.27079L11.875 3.85042V2.39579C11.875 2.24661 11.9342 2.10353 12.0397 1.99804C12.1452 1.89255 12.2883 1.83329 12.4375 1.83329H13.5625C13.7117 1.83329 13.8547 1.89255 13.9602 1.99804C14.0657 2.10353 14.125 2.24661 14.125 2.39579V6.10042L16.7732 8.74754C16.8255 8.79984 16.867 8.86193 16.8953 8.93026C16.9236 8.99859 16.9382 9.07183 16.9382 9.14579C16.9382 9.21975 16.9236 9.29299 16.8953 9.36132C16.867 9.42966 16.8255 9.49174 16.7732 9.54404C16.7209 9.59634 16.6588 9.63783 16.5905 9.66613C16.5222 9.69443 16.4489 9.709 16.375 9.709C16.301 9.709 16.2278 9.69443 16.1594 9.66613C16.0911 9.63783 16.029 9.59634 15.9767 9.54404L8.49998 2.06617L2.87498 7.69117V14.7708C2.87498 14.92 2.93424 15.0631 3.03973 15.1685C3.14522 15.274 3.28829 15.3333 3.43748 15.3333H7.93748C8.08666 15.3333 8.22974 15.3926 8.33523 15.498C8.44071 15.6035 8.49998 15.7466 8.49998 15.8958C8.49998 16.045 8.44071 16.1881 8.33523 16.2935C8.22974 16.399 8.08666 16.4583 7.93748 16.4583H3.43748C2.98993 16.4583 2.5607 16.2805 2.24424 15.964C1.92777 15.6476 1.74998 15.2183 1.74998 14.7708V8.81617L1.02323 9.54404C0.970929 9.59634 0.908841 9.63783 0.840509 9.66613C0.772178 9.69443 0.69894 9.709 0.624978 9.709C0.551016 9.709 0.477779 9.69443 0.409447 9.66613C0.341115 9.63783 0.279027 9.59634 0.226728 9.54404C0.174429 9.49174 0.132943 9.42966 0.104639 9.36132C0.0763355 9.29299 0.0617676 9.21975 0.0617676 9.14579C0.0617676 9.07183 0.0763355 8.99859 0.104639 8.93026C0.132943 8.86193 0.174429 8.79984 0.226728 8.74754L7.7046 1.27079Z" fill="#E1841A"/>
<path d="M13.5625 17.5835C14.6068 17.5835 15.6083 17.1687 16.3467 16.4302C17.0852 15.6918 17.5 14.6903 17.5 13.646C17.5 12.6017 17.0852 11.6002 16.3467 10.8618C15.6083 10.1233 14.6068 9.7085 13.5625 9.7085C12.5182 9.7085 11.5167 10.1233 10.7783 10.8618C10.0398 11.6002 9.625 12.6017 9.625 13.646C9.625 14.6903 10.0398 15.6918 10.7783 16.4302C11.5167 17.1687 12.5182 17.5835 13.5625 17.5835ZM13.9608 10.9977L15.6483 12.6852C15.7539 12.7909 15.8132 12.9341 15.8132 13.0835C15.8132 13.2329 15.7539 13.3761 15.6483 13.4817C15.5426 13.5874 15.3994 13.6467 15.25 13.6467C15.1006 13.6467 14.9574 13.5874 14.8517 13.4817L14.125 12.7539V15.896C14.125 16.0452 14.0657 16.1883 13.9602 16.2937C13.8548 16.3992 13.7117 16.4585 13.5625 16.4585C13.4133 16.4585 13.2702 16.3992 13.1648 16.2937C13.0593 16.1883 13 16.0452 13 15.896V12.7539L12.2733 13.4817C12.1678 13.5874 12.0247 13.6468 11.8754 13.6469C11.7261 13.647 11.5829 13.5878 11.4773 13.4823C11.3717 13.3768 11.3123 13.2337 11.3122 13.0845C11.3121 12.9352 11.3713 12.792 11.4767 12.6864L13.1642 10.9989C13.2165 10.9465 13.2786 10.9049 13.3469 10.8766C13.4153 10.8482 13.4885 10.8336 13.5625 10.8336C13.6365 10.8336 13.7097 10.8482 13.7781 10.8766C13.8464 10.9049 13.9085 10.9465 13.9608 10.9989V10.9977Z" fill="#E1841A"/>
</svg>
